<?xml version="1.0" encoding="UTF-8"?>
<!DOCTYPE svg PUBLIC "-//W3C//DTD SVG 1.1//EN" "http://www.w3.org/Graphics/SVG/1.1/DTD/svg11.dtd">
<!-- Creator: CorelDRAW 2019 (64-Bit) -->
<svg xmlns="http://www.w3.org/2000/svg" xml:space="preserve" width="37mm" height="34mm" version="1.1" style="shape-rendering:geometricPrecision; text-rendering:geometricPrecision; image-rendering:optimizeQuality; fill-rule:evenodd; clip-rule:evenodd"
viewBox="0 0 3700 3400"
 xmlns:xlink="http://www.w3.org/1999/xlink">
 <defs>
  <style type="text/css">
   <![CDATA[
    .fil0 {fill:#FEFEFE}
   ]]>
  </style>
 </defs>
 <g id="Capa_x0020_1">
  <metadata id="CorelCorpID_0Corel-Layer"/>
  <g id="_1339094824992">
   <path class="fil0" d="M2305.57 2746.58l372.86 -266.9c102.47,-102.31 63.93,-416.92 63.93,-592.35 0,-430.57 14.89,-888.05 -0.9,-1315.18 -52.29,23.12 -215.56,154.25 -283.38,201.88 -33.83,23.76 -64.87,44.91 -90.24,71.39 -101.32,105.75 -62.8,413.53 -62.8,589.93 0,432.4 -11.62,880.84 0.53,1311.23z"/>
   <path class="fil0" d="M892.41 2814.23c36.14,-14.37 356.87,-250.69 380.27,-277.05 90.03,-101.43 56.66,-427.47 56.66,-596.05 0,-433.23 1.56,-866.75 0.27,-1299.92 -36.47,7.63 -158.6,106.35 -195.24,132.93 -48.17,34.93 -152.18,103.67 -183.95,138.74 -96.84,106.97 -58.61,425.73 -58.61,597.79 0,432.75 -7.18,871.58 0.6,1303.56z"/>
   <path class="fil0" d="M1599.69 3266.43c44.89,-18.07 239.55,-168.43 292.19,-206.87 149.31,-109.04 143.91,-132.44 143.83,-354.36 -0.11,-328.98 -2.25,-658.83 0.2,-987.69 -68.46,25.27 -235.68,165.36 -298.04,208.88 -146.03,101.94 -139.17,143.06 -139.14,359.11 0.05,323.73 -8.36,658.61 0.96,980.93z"/>
   <path class="fil0" d="M1598.73 585.19l0.92 1086c64.53,-28.46 219.86,-152.43 290.39,-206.42 147.21,-112.69 145.73,-113.27 145.66,-352.27 -0.09,-324.92 -10.94,-669.77 0.82,-992.01 -51.45,22.14 -88.58,57.08 -131.81,89.39 -188.92,141.18 -305.98,169.92 -305.98,375.31z"/>
  </g>
 </g>
</svg>
